<svg width="61" height="61" viewBox="0 0 61 61" fill="none" xmlns="http://www.w3.org/2000/svg">
<circle opacity="0.1" cx="30.043" cy="30.3313" r="30" fill="#7289DA"/>
<path d="M26.347 26.9502C25.15 26.9502 24.205 28.0002 24.205 29.2812C24.205 30.5622 25.171 31.6122 26.347 31.6122C27.544 31.6122 28.489 30.5622 28.489 29.2812C28.51 28.0002 27.544 26.9502 26.347 26.9502ZM34.012 26.9502C32.815 26.9502 31.87 28.0002 31.87 29.2812C31.87 30.5622 32.836 31.6122 34.012 31.6122C35.209 31.6122 36.154 30.5622 36.154 29.2812C36.154 28.0002 35.209 26.9502 34.012 26.9502Z" fill="#4662C5"/>
<path d="M44.2179 9.3313H16.0779C13.7049 9.3313 11.7729 11.2633 11.7729 13.6573V42.0493C11.7729 44.4433 13.7049 46.3753 16.0779 46.3753H39.8919L38.7789 42.4903L41.4669 44.9893L44.0079 47.3413L48.5229 51.3313V13.6573C48.5229 11.2633 46.591 9.3313 44.2179 9.3313ZM36.1119 36.7573C36.1119 36.7573 35.3559 35.8543 34.7259 35.0563C37.4769 34.2793 38.5269 32.5573 38.5269 32.5573C37.6659 33.1243 36.8469 33.5233 36.1119 33.7963C35.0619 34.2373 34.0539 34.5313 33.0669 34.6993C31.0509 35.0773 29.2029 34.9723 27.6279 34.6783C26.4309 34.4473 25.4019 34.1113 24.5409 33.7753C24.0579 33.5863 23.5329 33.3553 23.0079 33.0613C22.9449 33.0193 22.8819 32.9983 22.8189 32.9563C22.7769 32.9353 22.7559 32.9143 22.7349 32.8933C22.3569 32.6833 22.1469 32.5363 22.1469 32.5363C22.1469 32.5363 23.1549 34.2163 25.8219 35.0143C25.1919 35.8123 24.4149 36.7573 24.4149 36.7573C19.7739 36.6103 18.0099 33.5653 18.0099 33.5653C18.0099 26.8033 21.0339 21.3223 21.0339 21.3223C24.0579 19.0543 26.9349 19.1173 26.9349 19.1173L27.1449 19.3693C23.3649 20.4613 21.6219 22.1203 21.6219 22.1203C21.6219 22.1203 22.0839 21.8683 22.8609 21.5113C25.1079 20.5243 26.8929 20.2513 27.6279 20.1883C27.7539 20.1673 27.8589 20.1463 27.9849 20.1463C29.2659 19.9783 30.7149 19.9363 32.2269 20.1043C34.2219 20.3353 36.3639 20.9233 38.5479 22.1203C38.5479 22.1203 36.889 20.5453 33.319 19.4533L33.6129 19.1173C33.6129 19.1173 36.49 19.0543 39.514 21.3223C39.514 21.3223 42.5379 26.8033 42.5379 33.5653C42.5379 33.5653 40.7529 36.6103 36.1119 36.7573Z" fill="#4662C5"/>
</svg>
