<svg width="61" height="61" viewBox="0 0 61 61" fill="none" xmlns="http://www.w3.org/2000/svg">
<circle opacity="0.1" cx="30.043" cy="30.3313" r="30" fill="#2B59FF"/>
<path d="M43.3763 32.298V28.6646C43.3763 25.1284 41.9715 21.737 39.471 19.2365C36.9706 16.7361 33.5792 15.3313 30.0429 15.3313C26.5067 15.3313 23.1153 16.7361 20.6149 19.2365C18.1144 21.737 16.7096 25.1284 16.7096 28.6646V32.298C15.737 32.6418 14.8946 33.2781 14.2978 34.1195C13.7011 34.961 13.3792 35.9664 13.3763 36.998V40.3313C13.3763 41.6574 13.9031 42.9292 14.8407 43.8668C15.7784 44.8045 17.0502 45.3313 18.3763 45.3313H23.3763C23.8183 45.3313 24.2422 45.1557 24.5548 44.8431C24.8674 44.5306 25.0429 44.1067 25.0429 43.6646V33.6646C25.0429 33.2226 24.8674 32.7987 24.5548 32.4861C24.2422 32.1736 23.8183 31.998 23.3763 31.998H20.0429V28.6646C20.0429 26.0125 21.0965 23.4689 22.9719 21.5936C24.8472 19.7182 27.3908 18.6646 30.0429 18.6646C32.6951 18.6646 35.2387 19.7182 37.114 21.5936C38.9894 23.4689 40.0429 26.0125 40.0429 28.6646V31.998H36.7096C36.2676 31.998 35.8437 32.1736 35.5311 32.4861C35.2185 32.7987 35.0429 33.2226 35.0429 33.6646V43.6646C35.0429 44.1067 35.2185 44.5306 35.5311 44.8431C35.8437 45.1557 36.2676 45.3313 36.7096 45.3313H41.7096C43.0357 45.3313 44.3075 44.8045 45.2452 43.8668C46.1828 42.9292 46.7096 41.6574 46.7096 40.3313V36.998C46.7067 35.9664 46.3848 34.961 45.7881 34.1195C45.1913 33.2781 44.3489 32.6418 43.3763 32.298ZM21.7096 35.3313V41.998H18.3763C17.9343 41.998 17.5103 41.8224 17.1978 41.5098C16.8852 41.1973 16.7096 40.7733 16.7096 40.3313V36.998C16.7096 36.5559 16.8852 36.132 17.1978 35.8195C17.5103 35.5069 17.9343 35.3313 18.3763 35.3313H21.7096ZM43.3763 40.3313C43.3763 40.7733 43.2007 41.1973 42.8881 41.5098C42.5756 41.8224 42.1516 41.998 41.7096 41.998H38.3763V35.3313H41.7096C42.1516 35.3313 42.5756 35.5069 42.8881 35.8195C43.2007 36.132 43.3763 36.5559 43.3763 36.998V40.3313Z" fill="#2B59FF"/>
</svg>
