<svg width="61" height="61" viewBox="0 0 61 61" fill="none" xmlns="http://www.w3.org/2000/svg">
<circle opacity="0.1" cx="30.043" cy="30.6418" r="30" fill="#00BB98"/>
<path d="M25.043 35.6418C24.7134 35.6418 24.3911 35.7395 24.117 35.9226C23.843 36.1058 23.6293 36.3661 23.5032 36.6706C23.377 36.9752 23.344 37.3103 23.4083 37.6336C23.4727 37.9569 23.6314 38.2539 23.8645 38.4869C24.0976 38.72 24.3945 38.8788 24.7178 38.9431C25.0411 39.0074 25.3763 38.9744 25.6808 38.8482C25.9853 38.7221 26.2456 38.5085 26.4288 38.2344C26.6119 37.9603 26.7097 37.6381 26.7097 37.3084C26.7097 36.8664 26.5341 36.4425 26.2215 36.1299C25.9089 35.8174 25.485 35.6418 25.043 35.6418ZM13.3763 33.9751C12.9343 33.9751 12.5104 34.1507 12.1978 34.4633C11.8853 34.7758 11.7097 35.1997 11.7097 35.6418V38.9751C11.7097 39.4171 11.8853 39.8411 12.1978 40.1536C12.5104 40.4662 12.9343 40.6418 13.3763 40.6418C13.8183 40.6418 14.2423 40.4662 14.5548 40.1536C14.8674 39.8411 15.043 39.4171 15.043 38.9751V35.6418C15.043 35.1997 14.8674 34.7758 14.5548 34.4633C14.2423 34.1507 13.8183 33.9751 13.3763 33.9751ZM46.7097 33.9751C46.2676 33.9751 45.8437 34.1507 45.5311 34.4633C45.2186 34.7758 45.043 35.1997 45.043 35.6418V38.9751C45.043 39.4171 45.2186 39.8411 45.5311 40.1536C45.8437 40.4662 46.2676 40.6418 46.7097 40.6418C47.1517 40.6418 47.5756 40.4662 47.8882 40.1536C48.2007 39.8411 48.3763 39.4171 48.3763 38.9751V35.6418C48.3763 35.1997 48.2007 34.7758 47.8882 34.4633C47.5756 34.1507 47.1517 33.9751 46.7097 33.9751ZM38.3763 22.3084H31.7097V20.1751C32.2134 19.8842 32.6324 19.4666 32.9247 18.9637C33.2171 18.4608 33.3728 17.8901 33.3763 17.3084C33.3763 16.4244 33.0251 15.5765 32.4 14.9514C31.7749 14.3263 30.927 13.9751 30.043 13.9751C29.1589 13.9751 28.3111 14.3263 27.686 14.9514C27.0608 15.5765 26.7097 16.4244 26.7097 17.3084C26.7132 17.8901 26.8689 18.4608 27.1612 18.9637C27.4536 19.4666 27.8725 19.8842 28.3763 20.1751V22.3084H21.7097C20.3836 22.3084 19.1118 22.8352 18.1741 23.7729C17.2364 24.7106 16.7097 25.9823 16.7097 27.3084V42.3084C16.7097 43.6345 17.2364 44.9063 18.1741 45.844C19.1118 46.7817 20.3836 47.3084 21.7097 47.3084H38.3763C39.7024 47.3084 40.9742 46.7817 41.9119 45.844C42.8495 44.9063 43.3763 43.6345 43.3763 42.3084V27.3084C43.3763 25.9823 42.8495 24.7106 41.9119 23.7729C40.9742 22.8352 39.7024 22.3084 38.3763 22.3084ZM32.9097 25.6418L32.0763 28.9751H28.0097L27.1763 25.6418H32.9097ZM40.043 42.3084C40.043 42.7505 39.8674 43.1744 39.5548 43.4869C39.2423 43.7995 38.8183 43.9751 38.3763 43.9751H21.7097C21.2676 43.9751 20.8437 43.7995 20.5311 43.4869C20.2186 43.1744 20.043 42.7505 20.043 42.3084V27.3084C20.043 26.8664 20.2186 26.4425 20.5311 26.1299C20.8437 25.8174 21.2676 25.6418 21.7097 25.6418H23.743L25.043 31.0418C25.1342 31.4116 25.3494 31.7389 25.6526 31.9694C25.9559 32.1999 26.3289 32.3195 26.7097 32.3084H33.3763C33.757 32.3195 34.1301 32.1999 34.4333 31.9694C34.7366 31.7389 34.9517 31.4116 35.043 31.0418L36.343 25.6418H38.3763C38.8183 25.6418 39.2423 25.8174 39.5548 26.1299C39.8674 26.4425 40.043 26.8664 40.043 27.3084V42.3084ZM35.043 35.6418C34.7134 35.6418 34.3911 35.7395 34.117 35.9226C33.843 36.1058 33.6293 36.3661 33.5032 36.6706C33.377 36.9752 33.344 37.3103 33.4083 37.6336C33.4727 37.9569 33.6314 38.2539 33.8645 38.4869C34.0976 38.72 34.3945 38.8788 34.7178 38.9431C35.0411 39.0074 35.3762 38.9744 35.6808 38.8482C35.9853 38.7221 36.2456 38.5085 36.4288 38.2344C36.6119 37.9603 36.7097 37.6381 36.7097 37.3084C36.7097 36.8664 36.5341 36.4425 36.2215 36.1299C35.9089 35.8174 35.485 35.6418 35.043 35.6418Z" fill="#00A07F"/>
</svg>
