<svg width="60" height="61" viewBox="0 0 60 61" fill="none" xmlns="http://www.w3.org/2000/svg">
<circle opacity="0.1" cx="29.9998" cy="30.7429" r="30" fill="#E1A03E"/>
<path fill-rule="evenodd" clip-rule="evenodd" d="M38.33 15C37.5424 17.4248 34.1122 19.25 30 19.25C25.8878 19.25 22.4576 17.4248 21.67 15H20.3893C20.0863 14.6178 19.5412 14.5051 19.1063 14.7562L18.6841 15H18.0001C17.4571 15 17.0153 15.4327 17.0005 15.972L7.95622 21.1937C7.47793 21.4699 7.31405 22.0814 7.5902 22.5597L11.9027 30.0292C12.1788 30.5075 12.7904 30.6714 13.2687 30.3952L17.0001 28.2409V48C17.0001 48.5522 17.4478 49 18.0001 49H42.0001C42.5524 49 43.0001 48.5522 43.0001 48V28.2397L46.7336 30.3952C47.2119 30.6714 47.8235 30.5075 48.0996 30.0292L52.4121 22.5597C52.6883 22.0814 52.5244 21.4699 52.0461 21.1937L42.9997 15.9707C42.9842 15.432 42.5426 15 42.0001 15H41.3182L40.896 14.7562C40.4611 14.5051 39.916 14.6178 39.6131 15H38.33Z" fill="#E1A03E"/>
</svg>
