<svg width="61" height="61" viewBox="0 0 61 61" fill="none" xmlns="http://www.w3.org/2000/svg">
<circle opacity="0.1" cx="30.543" cy="30.6418" r="30" fill="#FD4C5C"/>
<path d="M45.6507 14.6881C45.1762 14.2934 44.6035 14.0346 43.9936 13.9395C43.3837 13.8443 42.7594 13.9163 42.1872 14.1478L12.319 26.2067C11.6803 26.4695 11.1366 26.9204 10.76 27.4994C10.3835 28.0785 10.192 28.7583 10.2109 29.4488C10.2298 30.1392 10.4582 30.8076 10.8658 31.3652C11.2735 31.9227 11.841 32.3432 12.4932 32.5706L18.5349 34.6719L21.9024 45.8079C21.9481 45.9567 22.0145 46.0983 22.0997 46.2286C22.1126 46.2486 22.1308 46.2635 22.1445 46.2829C22.2429 46.4201 22.3617 46.5414 22.4969 46.6425C22.5354 46.6718 22.5722 46.6993 22.6133 46.7253C22.7715 46.8303 22.9467 46.907 23.1312 46.9522L23.1509 46.9538L23.1621 46.9586C23.273 46.9812 23.3858 46.9926 23.499 46.9928C23.5099 46.9928 23.5195 46.9876 23.5303 46.9874C23.7011 46.9844 23.8704 46.955 24.0321 46.9002C24.0698 46.8874 24.102 46.8659 24.1385 46.8505C24.2592 46.8005 24.3735 46.7364 24.479 46.6595C24.5636 46.5883 24.6481 46.5171 24.7327 46.4459L29.2363 41.4736L35.9534 46.677C36.5448 47.1374 37.2727 47.3877 38.0221 47.3883C38.8074 47.3873 39.5685 47.1164 40.1778 46.6209C40.787 46.1254 41.2074 45.4355 41.3685 44.6669L46.8063 17.9727C46.9296 17.3719 46.8871 16.7489 46.6836 16.1703C46.48 15.5918 46.123 15.0794 45.6507 14.6881ZM24.1599 35.2025C23.9288 35.4327 23.7708 35.726 23.7058 36.0456L23.1899 38.5522L21.8831 34.2305L28.6586 30.7022L24.1599 35.2025ZM37.9961 44.0419L30.0583 37.8928C29.7262 37.6362 29.3096 37.5142 28.8915 37.551C28.4735 37.5878 28.0846 37.7807 27.8024 38.0914L26.3601 39.6834L26.8698 37.206L38.6748 25.401C38.9566 25.1196 39.1283 24.7466 39.1587 24.3495C39.1892 23.9525 39.0765 23.5576 38.841 23.2365C38.6055 22.9154 38.2627 22.6893 37.8749 22.5991C37.487 22.5088 37.0796 22.5605 36.7266 22.7447L19.7844 31.5658L13.5772 29.2943L43.5413 17.3069L37.9961 44.0419Z" fill="#FD4C5C"/>
</svg>
