<svg width="61" height="61" viewBox="0 0 61 61" fill="none" xmlns="http://www.w3.org/2000/svg">
<circle opacity="0.1" cx="30.5429" cy="30.6418" r="30" fill="#37FF33"/>
<path opacity="0.5" fill-rule="evenodd" clip-rule="evenodd" d="M10.5429 10.6419L30.1743 6.96098C30.4179 6.91531 30.6679 6.91531 30.9115 6.96098L50.5429 10.6419V39.5451C50.5429 43.3378 48.5891 46.863 45.3729 48.8731L31.0729 57.8106C30.7486 58.0133 30.3372 58.0133 30.0129 57.8106L15.7129 48.8731C12.4967 46.863 10.5429 43.3378 10.5429 39.5451L10.5429 10.6419Z" fill="white"/>
<path fill-rule="evenodd" clip-rule="evenodd" d="M30.5429 28.1418C27.7815 28.1418 25.5429 25.9033 25.5429 23.1418C25.5429 20.3804 27.7815 18.1418 30.5429 18.1418C33.3043 18.1418 35.5429 20.3804 35.5429 23.1418C35.5429 25.9033 33.3043 28.1418 30.5429 28.1418Z" fill="#04DB00"/>
<path fill-rule="evenodd" clip-rule="evenodd" d="M18.0438 41.8906C18.5822 34.4333 23.9622 30.6418 30.5198 30.6418C37.1696 30.6418 42.633 34.225 43.04 41.8918C43.0562 42.1973 43.04 43.1418 41.9967 43.1418C36.85 43.1418 29.2022 43.1418 19.0533 43.1418C18.705 43.1418 18.0145 42.2968 18.0438 41.8906Z" fill="#04DB00"/>
</svg>
